<mxfile host="Electron" agent="Mozilla/5.0 (Windows NT 10.0; Win64; x64) AppleWebKit/537.36 (KHTML, like Gecko) draw.io/24.7.17 Chrome/128.0.6613.36 Electron/32.0.1 Safari/537.36" version="24.7.17">
  <diagram name="Capstone Artchiteture" id="VQqO4NWQYDGQUze0qOl4">
    <mxGraphModel dx="3056" dy="1939" grid="1" gridSize="10" guides="0" tooltips="1" connect="1" arrows="1" fold="1" page="1" pageScale="1" pageWidth="850" pageHeight="1100" math="0" shadow="0">
      <root>
        <mxCell id="0" />
        <mxCell id="1" parent="0" />
        <mxCell id="q-qhQtwyEfUwZkYRzV87-1" value="Region" style="html=1;overflow=block;blockSpacing=1;whiteSpace=wrap;shape=mxgraph.aws4.group;grIcon=mxgraph.aws4.group_region;verticalAlign=top;align=left;grIconSize=40;spacingLeft=45;spacingTop=5;dashed=1;fontColor=#0E82B8;container=1;pointerEvents=0;collapsible=0;recursiveResize=0;fontSize=13;spacing=0;strokeColor=#147eba;strokeOpacity=100;fillOpacity=0;rounded=1;absoluteArcSize=1;arcSize=9;fillColor=#ffffff;strokeWidth=1.5;lucidId=WtAqMzrhsyCX;" vertex="1" parent="1">
          <mxGeometry x="-780" y="-315" width="2085" height="1485" as="geometry" />
        </mxCell>
        <mxCell id="q-qhQtwyEfUwZkYRzV87-2" value="AWS Cloud" style="html=1;overflow=block;blockSpacing=1;whiteSpace=wrap;shape=mxgraph.aws4.group;grIcon=mxgraph.aws4.group_aws_cloud_alt;verticalAlign=top;align=left;grIconSize=40;spacingLeft=45;spacingTop=5;container=1;pointerEvents=0;collapsible=0;recursiveResize=0;fontSize=13;fontColor=#232f3e;spacing=0;strokeColor=#232f3e;strokeOpacity=100;fillOpacity=0;rounded=1;absoluteArcSize=1;arcSize=9;fillColor=#ffffff;strokeWidth=1.5;lucidId=b4AqjlbwC5Zi;" vertex="1" parent="1">
          <mxGeometry x="-900" y="-450" width="2325" height="1740" as="geometry" />
        </mxCell>
        <mxCell id="q-qhQtwyEfUwZkYRzV87-68" style="edgeStyle=orthogonalEdgeStyle;rounded=0;orthogonalLoop=1;jettySize=auto;html=1;" edge="1" parent="q-qhQtwyEfUwZkYRzV87-2" source="q-qhQtwyEfUwZkYRzV87-30">
          <mxGeometry relative="1" as="geometry">
            <mxPoint x="1650" y="1230" as="targetPoint" />
            <Array as="points">
              <mxPoint x="1650" y="1519" />
            </Array>
          </mxGeometry>
        </mxCell>
        <mxCell id="q-qhQtwyEfUwZkYRzV87-30" value="IAM Role" style="sketch=0;outlineConnect=0;fontColor=#232F3E;gradientColor=none;fillColor=#DD344C;strokeColor=none;dashed=0;verticalLabelPosition=bottom;verticalAlign=top;align=center;html=1;fontSize=12;fontStyle=0;aspect=fixed;pointerEvents=1;shape=mxgraph.aws4.identity_access_management_iam_roles_anywhere;" vertex="1" parent="q-qhQtwyEfUwZkYRzV87-2">
          <mxGeometry x="1190" y="1460" width="78" height="78" as="geometry" />
        </mxCell>
        <mxCell id="q-qhQtwyEfUwZkYRzV87-3" value="Public Subnet  2" style="html=1;overflow=block;blockSpacing=1;whiteSpace=wrap;shape=mxgraph.aws4.group;grIcon=mxgraph.aws4.group_security_group;grStroke=0;verticalAlign=top;align=left;grIconSize=40;spacingLeft=45;spacingTop=5;strokeColor=#2C8723;fontColor=#2C8723;container=1;pointerEvents=0;collapsible=0;recursiveResize=0;fontSize=13;spacing=0;strokeOpacity=100;fillOpacity=13;rounded=1;absoluteArcSize=1;arcSize=9;fillColor=#248814;strokeWidth=0;lucidId=AiAqgrTPt.2s;" vertex="1" parent="1">
          <mxGeometry x="-405" y="600" width="240" height="300" as="geometry" />
        </mxCell>
        <mxCell id="q-qhQtwyEfUwZkYRzV87-4" value="Public Subnet 1" style="html=1;overflow=block;blockSpacing=1;whiteSpace=wrap;shape=mxgraph.aws4.group;grIcon=mxgraph.aws4.group_security_group;grStroke=0;verticalAlign=top;align=left;grIconSize=40;spacingLeft=45;spacingTop=5;strokeColor=#2C8723;fontColor=#2C8723;container=1;pointerEvents=0;collapsible=0;recursiveResize=0;fontSize=13;spacing=0;strokeOpacity=100;fillOpacity=13;rounded=1;absoluteArcSize=1;arcSize=9;fillColor=#248814;strokeWidth=0;lucidId=8hAqpBYBoKoG;" vertex="1" parent="1">
          <mxGeometry x="-390" y="15" width="240" height="300" as="geometry" />
        </mxCell>
        <mxCell id="q-qhQtwyEfUwZkYRzV87-5" value="DB  Subnet" style="html=1;overflow=block;blockSpacing=1;whiteSpace=wrap;shape=mxgraph.aws4.group;grIcon=mxgraph.aws4.group_security_group;grStroke=0;verticalAlign=top;align=left;grIconSize=40;spacingLeft=45;spacingTop=5;strokeColor=#0E82B8;container=1;pointerEvents=0;collapsible=0;recursiveResize=0;fontSize=13;fontColor=#147eba;spacing=0;strokeOpacity=100;fillOpacity=13;rounded=1;absoluteArcSize=1;arcSize=9;fillColor=#147eba;strokeWidth=0;lucidId=z0CqblG~TxAF;" vertex="1" parent="1">
          <mxGeometry x="615" width="345" height="270" as="geometry" />
        </mxCell>
        <mxCell id="q-qhQtwyEfUwZkYRzV87-6" value="us-east-1a" style="html=1;overflow=block;blockSpacing=1;whiteSpace=wrap;verticalAlign=top;dashed=1;dashPattern=5 5;fontColor=#0E82B8;container=1;pointerEvents=0;collapsible=0;recursiveResize=0;fontSize=16.7;spacing=0;strokeColor=#147eba;strokeOpacity=100;fillOpacity=0;rounded=1;absoluteArcSize=1;arcSize=9;fillColor=#ffffff;strokeWidth=1.5;lucidId=a5CqJh-TiHjr;" vertex="1" parent="1">
          <mxGeometry x="-530" y="-70" width="1565" height="445" as="geometry" />
        </mxCell>
        <mxCell id="q-qhQtwyEfUwZkYRzV87-7" value="DB  Subnet" style="html=1;overflow=block;blockSpacing=1;whiteSpace=wrap;shape=mxgraph.aws4.group;grIcon=mxgraph.aws4.group_security_group;grStroke=0;verticalAlign=top;align=left;grIconSize=40;spacingLeft=45;spacingTop=5;strokeColor=#0E82B8;container=1;pointerEvents=0;collapsible=0;recursiveResize=0;fontSize=13;fontColor=#147eba;spacing=0;strokeOpacity=100;fillOpacity=13;rounded=1;absoluteArcSize=1;arcSize=9;fillColor=#147eba;strokeWidth=0;lucidId=41CqsuUjZadm;" vertex="1" parent="1">
          <mxGeometry x="600" y="615" width="345" height="270" as="geometry" />
        </mxCell>
        <mxCell id="q-qhQtwyEfUwZkYRzV87-10" value="Private Subnet" style="html=1;overflow=block;blockSpacing=1;whiteSpace=wrap;shape=mxgraph.aws4.group;grIcon=mxgraph.aws4.group_security_group;grStroke=0;verticalAlign=top;align=left;grIconSize=40;spacingLeft=45;spacingTop=5;strokeColor=#0E82B8;container=1;pointerEvents=0;collapsible=0;recursiveResize=0;fontSize=16.7;spacing=0;strokeOpacity=100;fillOpacity=13;rounded=1;absoluteArcSize=1;arcSize=9;fillColor=#147eba;strokeWidth=0;lucidId=dsDqEf.9v24b;" vertex="1" parent="1">
          <mxGeometry x="-50" y="590" width="361" height="295" as="geometry" />
        </mxCell>
        <mxCell id="q-qhQtwyEfUwZkYRzV87-11" value="Auto Scaling" style="html=1;overflow=block;blockSpacing=1;whiteSpace=wrap;shape=mxgraph.aws4.groupCenter;grIcon=mxgraph.aws4.group_auto_scaling_group;grStroke=1;verticalAlign=top;fontColor=#D75F17;spacingTop=25;container=1;pointerEvents=0;collapsible=0;recursiveResize=0;fontSize=13;spacing=0;strokeColor=#d86613;strokeOpacity=100;fillOpacity=0;rounded=1;absoluteArcSize=1;arcSize=9;fillColor=#ffffff;dashed=1;fixDash=1;dashPattern=6 5;strokeWidth=1.5;lucidId=OHDqwUThwd.X;" vertex="1" parent="1">
          <mxGeometry x="10" y="110" width="190" height="690" as="geometry" />
        </mxCell>
        <mxCell id="q-qhQtwyEfUwZkYRzV87-12" value="Project  VPC" style="html=1;overflow=block;blockSpacing=1;whiteSpace=wrap;shape=mxgraph.aws4.group;grIcon=mxgraph.aws4.group_aws_cloud;verticalAlign=top;align=left;grIconSize=40;spacingLeft=45;spacingTop=5;container=1;pointerEvents=0;collapsible=0;recursiveResize=0;fontSize=15;fontColor=#232f3e;spacing=0;strokeColor=#232f3e;strokeOpacity=100;fillOpacity=0;rounded=1;absoluteArcSize=1;arcSize=9;fillColor=#ffffff;strokeWidth=1.5;lucidId=2cEqYGzkUiE3;" vertex="1" parent="1">
          <mxGeometry x="-670" y="-220" width="1900" height="1210" as="geometry" />
        </mxCell>
        <mxCell id="q-qhQtwyEfUwZkYRzV87-25" value="EC2 instance" style="sketch=0;points=[[0,0,0],[0.25,0,0],[0.5,0,0],[0.75,0,0],[1,0,0],[0,1,0],[0.25,1,0],[0.5,1,0],[0.75,1,0],[1,1,0],[0,0.25,0],[0,0.5,0],[0,0.75,0],[1,0.25,0],[1,0.5,0],[1,0.75,0]];outlineConnect=0;fontColor=#232F3E;fillColor=#ED7100;strokeColor=#ffffff;dashed=0;verticalLabelPosition=bottom;verticalAlign=top;align=center;html=1;fontSize=12;fontStyle=0;aspect=fixed;shape=mxgraph.aws4.resourceIcon;resIcon=mxgraph.aws4.compute;" vertex="1" parent="q-qhQtwyEfUwZkYRzV87-12">
          <mxGeometry x="732" y="420" width="78" height="78" as="geometry" />
        </mxCell>
        <mxCell id="q-qhQtwyEfUwZkYRzV87-26" value="EC2 instance" style="sketch=0;points=[[0,0,0],[0.25,0,0],[0.5,0,0],[0.75,0,0],[1,0,0],[0,1,0],[0.25,1,0],[0.5,1,0],[0.75,1,0],[1,1,0],[0,0.25,0],[0,0.5,0],[0,0.75,0],[1,0.25,0],[1,0.5,0],[1,0.75,0]];outlineConnect=0;fontColor=#232F3E;fillColor=#ED7100;strokeColor=#ffffff;dashed=0;verticalLabelPosition=bottom;verticalAlign=top;align=center;html=1;fontSize=12;fontStyle=0;aspect=fixed;shape=mxgraph.aws4.resourceIcon;resIcon=mxgraph.aws4.compute;" vertex="1" parent="q-qhQtwyEfUwZkYRzV87-12">
          <mxGeometry x="732" y="867" width="78" height="78" as="geometry" />
        </mxCell>
        <mxCell id="q-qhQtwyEfUwZkYRzV87-27" value="RDS" style="sketch=0;points=[[0,0,0],[0.25,0,0],[0.5,0,0],[0.75,0,0],[1,0,0],[0,1,0],[0.25,1,0],[0.5,1,0],[0.75,1,0],[1,1,0],[0,0.25,0],[0,0.5,0],[0,0.75,0],[1,0.25,0],[1,0.5,0],[1,0.75,0]];outlineConnect=0;fontColor=#232F3E;fillColor=#C925D1;strokeColor=#ffffff;dashed=0;verticalLabelPosition=bottom;verticalAlign=top;align=center;html=1;fontSize=12;fontStyle=0;aspect=fixed;shape=mxgraph.aws4.resourceIcon;resIcon=mxgraph.aws4.rds;" vertex="1" parent="q-qhQtwyEfUwZkYRzV87-12">
          <mxGeometry x="1350" y="370" width="78" height="78" as="geometry" />
        </mxCell>
        <mxCell id="q-qhQtwyEfUwZkYRzV87-28" value="RDS" style="sketch=0;points=[[0,0,0],[0.25,0,0],[0.5,0,0],[0.75,0,0],[1,0,0],[0,1,0],[0.25,1,0],[0.5,1,0],[0.75,1,0],[1,1,0],[0,0.25,0],[0,0.5,0],[0,0.75,0],[1,0.25,0],[1,0.5,0],[1,0.75,0]];outlineConnect=0;fontColor=#232F3E;fillColor=#C925D1;strokeColor=#ffffff;dashed=0;verticalLabelPosition=bottom;verticalAlign=top;align=center;html=1;fontSize=12;fontStyle=0;aspect=fixed;shape=mxgraph.aws4.resourceIcon;resIcon=mxgraph.aws4.rds;" vertex="1" parent="q-qhQtwyEfUwZkYRzV87-12">
          <mxGeometry x="1360" y="890" width="98" height="98" as="geometry" />
        </mxCell>
        <mxCell id="q-qhQtwyEfUwZkYRzV87-32" value="Security group" style="fillColor=none;strokeColor=#DD3522;verticalAlign=top;fontStyle=0;fontColor=#DD3522;whiteSpace=wrap;html=1;" vertex="1" parent="q-qhQtwyEfUwZkYRzV87-12">
          <mxGeometry x="720" y="400" width="100" height="120" as="geometry" />
        </mxCell>
        <mxCell id="q-qhQtwyEfUwZkYRzV87-36" value="" style="endArrow=none;dashed=1;html=1;rounded=0;entryX=0.5;entryY=1;entryDx=0;entryDy=0;entryPerimeter=0;exitX=0.5;exitY=0;exitDx=0;exitDy=0;exitPerimeter=0;jumpSize=9;fillColor=#647687;strokeColor=#314354;" edge="1" parent="q-qhQtwyEfUwZkYRzV87-12" source="q-qhQtwyEfUwZkYRzV87-28" target="q-qhQtwyEfUwZkYRzV87-27">
          <mxGeometry width="50" height="50" relative="1" as="geometry">
            <mxPoint x="1070" y="824" as="sourcePoint" />
            <mxPoint x="1523.0824742268032" y="540" as="targetPoint" />
          </mxGeometry>
        </mxCell>
        <mxCell id="q-qhQtwyEfUwZkYRzV87-62" style="edgeStyle=orthogonalEdgeStyle;rounded=0;orthogonalLoop=1;jettySize=auto;html=1;entryX=0;entryY=0.25;entryDx=0;entryDy=0;entryPerimeter=0;" edge="1" parent="q-qhQtwyEfUwZkYRzV87-12" source="q-qhQtwyEfUwZkYRzV87-13" target="q-qhQtwyEfUwZkYRzV87-28">
          <mxGeometry relative="1" as="geometry">
            <Array as="points">
              <mxPoint x="1135" y="605" />
              <mxPoint x="1200" y="605" />
              <mxPoint x="1200" y="910" />
              <mxPoint x="1360" y="910" />
            </Array>
          </mxGeometry>
        </mxCell>
        <mxCell id="q-qhQtwyEfUwZkYRzV87-13" value="AWS Secrets Manager" style="html=1;overflow=block;blockSpacing=1;whiteSpace=wrap;shape=mxgraph.aws4.resourceIcon;resIcon=mxgraph.aws4.secrets_manager;labelPosition=center;verticalLabelPosition=bottom;align=center;verticalAlign=top;strokeColor=#ffffff;pointerEvents=1;fontSize=16.7;spacing=0;rounded=1;absoluteArcSize=1;arcSize=9;fillColor=#d6242d;strokeWidth=NaN;lucidId=MbAq6JRl0YoB;" vertex="1" parent="q-qhQtwyEfUwZkYRzV87-12">
          <mxGeometry x="1110" y="450" width="80" height="80" as="geometry" />
        </mxCell>
        <mxCell id="q-qhQtwyEfUwZkYRzV87-41" value="DB Security group" style="fillColor=none;strokeColor=#DD3522;verticalAlign=top;fontStyle=0;fontColor=#DD3522;whiteSpace=wrap;html=1;" vertex="1" parent="q-qhQtwyEfUwZkYRzV87-12">
          <mxGeometry x="1428" y="350" width="130" height="122" as="geometry" />
        </mxCell>
        <mxCell id="q-qhQtwyEfUwZkYRzV87-45" value="SQL dump" style="sketch=0;points=[[0,0,0],[0.25,0,0],[0.5,0,0],[0.75,0,0],[1,0,0],[0,1,0],[0.25,1,0],[0.5,1,0],[0.75,1,0],[1,1,0],[0,0.25,0],[0,0.5,0],[0,0.75,0],[1,0.25,0],[1,0.5,0],[1,0.75,0]];outlineConnect=0;fontColor=#232F3E;fillColor=#7AA116;strokeColor=#ffffff;dashed=0;verticalLabelPosition=bottom;verticalAlign=top;align=center;html=1;fontSize=12;fontStyle=0;aspect=fixed;shape=mxgraph.aws4.resourceIcon;resIcon=mxgraph.aws4.storage;" vertex="1" parent="q-qhQtwyEfUwZkYRzV87-12">
          <mxGeometry x="1170" y="300" width="40" height="40" as="geometry" />
        </mxCell>
        <mxCell id="q-qhQtwyEfUwZkYRzV87-44" value="SQL Dump" style="sketch=0;points=[[0,0,0],[0.25,0,0],[0.5,0,0],[0.75,0,0],[1,0,0],[0,1,0],[0.25,1,0],[0.5,1,0],[0.75,1,0],[1,1,0],[0,0.25,0],[0,0.5,0],[0,0.75,0],[1,0.25,0],[1,0.5,0],[1,0.75,0]];outlineConnect=0;fontColor=#232F3E;fillColor=#7AA116;strokeColor=#ffffff;dashed=0;verticalLabelPosition=bottom;verticalAlign=top;align=center;html=1;fontSize=12;fontStyle=0;aspect=fixed;shape=mxgraph.aws4.resourceIcon;resIcon=mxgraph.aws4.storage;" vertex="1" parent="q-qhQtwyEfUwZkYRzV87-12">
          <mxGeometry x="1140" y="921" width="50" height="50" as="geometry" />
        </mxCell>
        <mxCell id="q-qhQtwyEfUwZkYRzV87-48" style="edgeStyle=orthogonalEdgeStyle;rounded=0;orthogonalLoop=1;jettySize=auto;html=1;exitX=0.5;exitY=1;exitDx=0;exitDy=0;exitPerimeter=0;entryX=0.5;entryY=0;entryDx=0;entryDy=0;entryPerimeter=0;" edge="1" parent="q-qhQtwyEfUwZkYRzV87-12" source="q-qhQtwyEfUwZkYRzV87-45" target="q-qhQtwyEfUwZkYRzV87-27">
          <mxGeometry relative="1" as="geometry" />
        </mxCell>
        <mxCell id="q-qhQtwyEfUwZkYRzV87-49" style="edgeStyle=orthogonalEdgeStyle;rounded=0;orthogonalLoop=1;jettySize=auto;html=1;exitX=1;exitY=0.5;exitDx=0;exitDy=0;exitPerimeter=0;entryX=0;entryY=0.5;entryDx=0;entryDy=0;entryPerimeter=0;" edge="1" parent="q-qhQtwyEfUwZkYRzV87-12" source="q-qhQtwyEfUwZkYRzV87-44" target="q-qhQtwyEfUwZkYRzV87-28">
          <mxGeometry relative="1" as="geometry" />
        </mxCell>
        <mxCell id="q-qhQtwyEfUwZkYRzV87-20" value="Internet gateway" style="html=1;overflow=block;blockSpacing=1;whiteSpace=wrap;shape=mxgraph.aws4.internet_gateway;labelPosition=center;verticalLabelPosition=bottom;align=center;verticalAlign=top;pointerEvents=1;fontSize=13;spacing=0;strokeColor=#3a414a;strokeOpacity=100;rounded=1;absoluteArcSize=1;arcSize=9;fillColor=#693cc5;strokeWidth=1.5;lucidId=5oEqgyEJ3VF0;" vertex="1" parent="q-qhQtwyEfUwZkYRzV87-12">
          <mxGeometry x="-20" y="320" width="60" height="60" as="geometry" />
        </mxCell>
        <mxCell id="q-qhQtwyEfUwZkYRzV87-8" value="us-east-1b" style="html=1;overflow=block;blockSpacing=1;whiteSpace=wrap;verticalAlign=top;dashed=1;dashPattern=5 5;fontColor=#0E82B8;container=1;pointerEvents=0;collapsible=0;recursiveResize=0;fontSize=13;spacing=0;strokeColor=#147eba;strokeOpacity=100;fillOpacity=0;rounded=1;absoluteArcSize=1;arcSize=9;fillColor=#ffffff;strokeWidth=1.5;lucidId=w6CqUpzDnwYo;" vertex="1" parent="q-qhQtwyEfUwZkYRzV87-12">
          <mxGeometry x="90" y="730" width="1550" height="390" as="geometry" />
        </mxCell>
        <mxCell id="q-qhQtwyEfUwZkYRzV87-33" value="Security group" style="fillColor=none;strokeColor=#DD3522;verticalAlign=top;fontStyle=0;fontColor=#DD3522;whiteSpace=wrap;html=1;" vertex="1" parent="q-qhQtwyEfUwZkYRzV87-8">
          <mxGeometry x="630" y="130" width="120" height="111" as="geometry" />
        </mxCell>
        <mxCell id="q-qhQtwyEfUwZkYRzV87-16" value="NAT gateway" style="html=1;overflow=block;blockSpacing=1;whiteSpace=wrap;shape=mxgraph.aws4.nat_gateway;labelPosition=center;verticalLabelPosition=bottom;align=center;verticalAlign=top;pointerEvents=1;fontSize=13;spacing=0;strokeColor=#3a414a;strokeOpacity=100;rounded=1;absoluteArcSize=1;arcSize=9;fillColor=#693cc5;dashed=1;fixDash=1;dashPattern=6 5;strokeWidth=1.5;lucidId=rhAqLpnPTgOd;" vertex="1" parent="q-qhQtwyEfUwZkYRzV87-8">
          <mxGeometry x="330" y="260" width="60" height="60" as="geometry" />
        </mxCell>
        <mxCell id="q-qhQtwyEfUwZkYRzV87-35" value="Security group" style="fillColor=none;strokeColor=#DD3522;verticalAlign=top;fontStyle=0;fontColor=#DD3522;whiteSpace=wrap;html=1;" vertex="1" parent="q-qhQtwyEfUwZkYRzV87-8">
          <mxGeometry x="230" y="120" width="130" height="130" as="geometry" />
        </mxCell>
        <mxCell id="q-qhQtwyEfUwZkYRzV87-67" style="edgeStyle=orthogonalEdgeStyle;rounded=0;orthogonalLoop=1;jettySize=auto;html=1;exitX=0.5;exitY=1;exitDx=0;exitDy=0;" edge="1" parent="q-qhQtwyEfUwZkYRzV87-8" source="q-qhQtwyEfUwZkYRzV87-35" target="q-qhQtwyEfUwZkYRzV87-35">
          <mxGeometry relative="1" as="geometry" />
        </mxCell>
        <mxCell id="q-qhQtwyEfUwZkYRzV87-66" style="edgeStyle=orthogonalEdgeStyle;rounded=0;orthogonalLoop=1;jettySize=auto;html=1;" edge="1" parent="q-qhQtwyEfUwZkYRzV87-8">
          <mxGeometry relative="1" as="geometry">
            <mxPoint x="870.0159545454544" y="519" as="sourcePoint" />
            <mxPoint x="300" y="210" as="targetPoint" />
            <Array as="points">
              <mxPoint x="300" y="519" />
            </Array>
          </mxGeometry>
        </mxCell>
        <mxCell id="q-qhQtwyEfUwZkYRzV87-42" value="DB Security group" style="fillColor=none;strokeColor=#DD3522;verticalAlign=top;fontStyle=0;fontColor=#DD3522;whiteSpace=wrap;html=1;" vertex="1" parent="q-qhQtwyEfUwZkYRzV87-8">
          <mxGeometry x="1370" y="140" width="130" height="126" as="geometry" />
        </mxCell>
        <mxCell id="q-qhQtwyEfUwZkYRzV87-34" value="Security group" style="fillColor=none;strokeColor=#DD3522;verticalAlign=top;fontStyle=0;fontColor=#DD3522;whiteSpace=wrap;html=1;" vertex="1" parent="q-qhQtwyEfUwZkYRzV87-12">
          <mxGeometry x="330" y="270" width="130" height="140" as="geometry" />
        </mxCell>
        <mxCell id="q-qhQtwyEfUwZkYRzV87-50" style="edgeStyle=orthogonalEdgeStyle;rounded=0;orthogonalLoop=1;jettySize=auto;html=1;entryX=0;entryY=0.5;entryDx=0;entryDy=0;" edge="1" parent="q-qhQtwyEfUwZkYRzV87-12" source="q-qhQtwyEfUwZkYRzV87-20" target="q-qhQtwyEfUwZkYRzV87-34">
          <mxGeometry relative="1" as="geometry" />
        </mxCell>
        <mxCell id="q-qhQtwyEfUwZkYRzV87-57" style="edgeStyle=orthogonalEdgeStyle;rounded=0;orthogonalLoop=1;jettySize=auto;html=1;entryX=0;entryY=0.5;entryDx=0;entryDy=0;" edge="1" parent="q-qhQtwyEfUwZkYRzV87-12">
          <mxGeometry relative="1" as="geometry">
            <mxPoint x="10" y="379.9993167843313" as="sourcePoint" />
            <mxPoint x="310" y="925" as="targetPoint" />
            <Array as="points">
              <mxPoint x="10" y="390" />
              <mxPoint x="175" y="390" />
              <mxPoint x="175" y="925" />
            </Array>
          </mxGeometry>
        </mxCell>
        <mxCell id="q-qhQtwyEfUwZkYRzV87-63" value="" style="edgeStyle=orthogonalEdgeStyle;html=1;endArrow=openThin;elbow=vertical;startArrow=openThin;startFill=0;endFill=0;strokeColor=#545B64;rounded=0;exitX=1.06;exitY=0.435;exitDx=0;exitDy=0;exitPerimeter=0;entryX=0;entryY=0.75;entryDx=0;entryDy=0;entryPerimeter=0;" edge="1" parent="q-qhQtwyEfUwZkYRzV87-12" source="q-qhQtwyEfUwZkYRzV87-13" target="q-qhQtwyEfUwZkYRzV87-27">
          <mxGeometry width="100" relative="1" as="geometry">
            <mxPoint x="1220" y="430" as="sourcePoint" />
            <mxPoint x="1320" y="430" as="targetPoint" />
            <Array as="points">
              <mxPoint x="1220" y="485" />
              <mxPoint x="1220" y="470" />
              <mxPoint x="1320" y="470" />
              <mxPoint x="1320" y="429" />
            </Array>
          </mxGeometry>
        </mxCell>
        <mxCell id="q-qhQtwyEfUwZkYRzV87-64" style="edgeStyle=orthogonalEdgeStyle;rounded=0;orthogonalLoop=1;jettySize=auto;html=1;exitX=1;exitY=0.5;exitDx=0;exitDy=0;entryX=0;entryY=1;entryDx=0;entryDy=0;entryPerimeter=0;" edge="1" parent="q-qhQtwyEfUwZkYRzV87-12" source="q-qhQtwyEfUwZkYRzV87-33" target="q-qhQtwyEfUwZkYRzV87-28">
          <mxGeometry relative="1" as="geometry" />
        </mxCell>
        <mxCell id="q-qhQtwyEfUwZkYRzV87-9" value="Private Subnet" style="html=1;overflow=block;blockSpacing=1;whiteSpace=wrap;shape=mxgraph.aws4.group;grIcon=mxgraph.aws4.group_security_group;grStroke=0;verticalAlign=top;align=left;grIconSize=40;spacingLeft=45;spacingTop=5;strokeColor=#0E82B8;container=1;pointerEvents=0;collapsible=0;recursiveResize=0;fontSize=16.7;spacing=0;strokeOpacity=100;fillOpacity=13;rounded=1;absoluteArcSize=1;arcSize=9;fillColor=#147eba;strokeWidth=0;lucidId=9.zqM2GTNoUO;" vertex="1" parent="q-qhQtwyEfUwZkYRzV87-12">
          <mxGeometry x="610" y="240" width="341" height="300" as="geometry" />
        </mxCell>
        <mxCell id="q-qhQtwyEfUwZkYRzV87-65" style="edgeStyle=orthogonalEdgeStyle;rounded=0;orthogonalLoop=1;jettySize=auto;html=1;exitX=1;exitY=0.5;exitDx=0;exitDy=0;entryX=0;entryY=0.5;entryDx=0;entryDy=0;entryPerimeter=0;" edge="1" parent="q-qhQtwyEfUwZkYRzV87-12" source="q-qhQtwyEfUwZkYRzV87-32" target="q-qhQtwyEfUwZkYRzV87-27">
          <mxGeometry relative="1" as="geometry" />
        </mxCell>
        <mxCell id="q-qhQtwyEfUwZkYRzV87-15" value="NAT gateway" style="html=1;overflow=block;blockSpacing=1;whiteSpace=wrap;shape=mxgraph.aws4.nat_gateway;labelPosition=center;verticalLabelPosition=bottom;align=center;verticalAlign=top;pointerEvents=1;fontSize=13;spacing=0;strokeColor=#3a414a;strokeOpacity=100;rounded=1;absoluteArcSize=1;arcSize=9;fillColor=#693cc5;dashed=1;fixDash=1;dashPattern=6 5;strokeWidth=1.5;lucidId=.gAq0UtKTun4;" vertex="1" parent="q-qhQtwyEfUwZkYRzV87-12">
          <mxGeometry x="370" y="430" width="60" height="60" as="geometry" />
        </mxCell>
        <mxCell id="q-qhQtwyEfUwZkYRzV87-21" value="Application Load Balancer" style="html=1;overflow=block;blockSpacing=1;whiteSpace=wrap;shape=mxgraph.aws4.application_load_balancer;labelPosition=center;verticalLabelPosition=bottom;align=center;verticalAlign=top;pointerEvents=1;fontSize=13;spacing=0;strokeColor=#3a414a;strokeOpacity=100;rounded=1;absoluteArcSize=1;arcSize=9;fillColor=#693cc5;strokeWidth=1.5;lucidId=nqEqAo_byII2;" vertex="1" parent="1">
          <mxGeometry x="-300" y="75" width="60" height="60" as="geometry" />
        </mxCell>
        <mxCell id="q-qhQtwyEfUwZkYRzV87-22" value="Application Load Balancer" style="html=1;overflow=block;blockSpacing=1;whiteSpace=wrap;shape=mxgraph.aws4.application_load_balancer;labelPosition=center;verticalLabelPosition=bottom;align=center;verticalAlign=top;pointerEvents=1;fontSize=13;spacing=0;strokeColor=#3a414a;strokeOpacity=100;rounded=1;absoluteArcSize=1;arcSize=9;fillColor=#693cc5;strokeWidth=1.5;lucidId=SqEqjoQa5ia0;" vertex="1" parent="1">
          <mxGeometry x="-315" y="675" width="60" height="60" as="geometry" />
        </mxCell>
      </root>
    </mxGraphModel>
  </diagram>
</mxfile>
